<svg version="1.1" id="Layer_1" xmlns="http://www.w3.org/2000/svg" xmlns:xlink="http://www.w3.org/1999/xlink" x="0px" y="0px"
	 width="100%" viewBox="0 0 141 228" enable-background="new 0 0 141 228" xml:space="preserve">
<path fill="#070505" opacity="1.000000" stroke="none" 
	d="
M141.674957,209.670532 
	C142.000000,212.041672 142.000000,214.083328 142.000000,216.562500 
	C136.756577,219.607941 131.261658,218.678650 125.919258,217.742981 
	C123.047211,217.239975 122.197357,214.176071 121.166306,211.714767 
	C119.085938,206.748520 118.559189,206.397949 114.096603,209.461823 
	C107.424828,214.042419 100.356804,217.151062 92.380409,219.064316 
	C83.880409,221.103165 75.474503,219.882675 66.642197,220.437973 
	C58.793331,220.338791 52.107769,217.235764 44.784180,215.051682 
	C26.782980,207.885788 15.849169,194.311707 8.098356,177.653442 
	C5.702345,172.503845 5.244299,166.744537 2.981892,161.104111 
	C2.177064,149.183731 2.519236,137.658340 2.747952,125.718094 
	C4.813061,122.112450 4.952495,118.343742 5.836110,114.857681 
	C8.570284,104.070740 15.547220,95.753662 21.497490,86.857582 
	C24.308765,82.654526 29.351931,80.861465 33.342438,78.002045 
	C38.120914,74.578003 43.478649,71.732056 49.500229,69.601959 
	C53.066063,67.950333 56.454632,67.431923 60.374146,67.568192 
	C61.321415,67.557884 61.863102,67.517860 62.799896,67.326874 
	C69.513550,64.188339 76.221886,65.912308 83.180161,65.636871 
	C88.887543,67.987038 94.908150,67.233841 100.555641,69.769417 
	C109.904236,73.923737 118.157227,79.201454 125.541153,85.585503 
	C128.968048,88.548347 130.828278,93.135376 132.955765,97.271568 
	C134.939560,101.128403 136.241074,105.259109 137.718094,109.293823 
	C139.480255,114.107529 137.277008,117.020340 132.141525,117.301666 
	C128.162048,117.519661 124.169380,117.359535 120.182327,117.349960 
	C116.233253,117.340469 114.341423,115.555023 113.561577,111.523499 
	C111.494965,100.840012 104.725136,94.090553 94.243591,90.405304 
	C89.081833,88.291801 84.275864,86.447861 78.552078,87.922729 
	C74.364311,86.288010 70.416725,87.505226 66.186752,87.337860 
	C64.931824,87.338577 64.027245,87.306221 62.818867,87.578545 
	C62.082867,87.783127 61.661118,87.893623 60.925888,88.094879 
	C60.194439,88.320114 59.775806,88.451843 59.038704,88.694305 
	C58.500298,88.864212 58.280716,88.924530 57.723648,89.054192 
	C56.693707,89.241302 55.994884,89.311783 54.941002,89.469254 
	C40.737858,97.202713 31.460121,108.067604 27.946869,124.046692 
	C25.645079,134.515778 25.810322,144.968033 26.700327,155.248093 
	C27.930164,169.453384 33.665928,182.128494 45.515923,191.635651 
	C46.475258,192.180740 47.073921,192.600327 47.970440,193.210327 
	C51.159519,195.692139 54.616951,196.890701 58.246304,198.461151 
	C59.923347,198.695587 61.279385,198.759171 62.952942,199.008209 
	C63.707054,199.194122 64.121536,199.341736 64.810867,199.659576 
	C65.277328,199.901016 65.457169,200.004776 65.889366,200.278503 
	C66.770775,200.939499 67.447990,201.280869 68.591309,201.074982 
	C69.560883,200.885574 70.227310,200.806732 71.262329,200.699158 
	C71.883705,200.652115 72.137039,200.637726 72.778625,200.593292 
	C82.474892,200.893341 91.308121,198.063782 99.860634,195.237167 
	C106.530602,193.032715 112.204285,188.026886 116.806252,182.478989 
	C120.081978,178.529907 118.526604,173.503540 118.321083,168.972214 
	C118.004555,161.993759 117.208672,161.488998 110.186172,161.463852 
	C102.537758,161.436462 94.887993,161.552628 87.241470,161.402069 
	C84.662140,161.351273 81.646103,161.674301 81.089264,157.469025 
	C82.255653,152.418640 80.992477,147.632324 82.249664,142.585022 
	C82.666199,141.936249 82.881226,141.706665 83.515923,141.251190 
	C96.348831,140.023972 108.783012,140.743927 121.206520,140.622360 
	C126.493340,140.570633 131.813614,140.077377 137.501846,141.279938 
	C140.413757,145.140823 140.398956,149.384018 140.420471,153.461182 
	C140.511536,170.711868 140.650360,187.964508 140.349350,205.214905 
	C140.323181,206.715607 139.993973,208.210083 141.674957,209.670532 
z"/>
<path fill="#FBF9F9" opacity="1.000000" stroke="none" 
	d="
M81.966965,156.601746 
	C81.389633,160.390915 83.825119,159.831467 85.741852,159.835434 
	C95.717552,159.856110 105.695084,159.947952 115.667992,159.779373 
	C118.641121,159.729126 119.967621,160.474472 119.725739,163.633743 
	C119.510597,166.443619 119.351929,169.330124 119.744499,172.101181 
	C121.136742,181.928696 115.517639,186.690369 108.146133,191.955566 
	C101.180122,196.931168 93.637199,197.740448 86.155029,200.110825 
	C81.584183,201.558899 77.295898,201.752441 72.320259,201.819092 
	C71.136597,200.955872 70.861755,199.967514 71.111465,198.982285 
	C74.257820,186.568085 72.654205,173.918198 72.189400,161.458221 
	C71.974602,155.700150 70.490494,149.809952 70.668472,143.443893 
	C70.732582,142.754440 70.771248,142.486038 70.916626,141.837570 
	C72.747978,138.055038 73.724617,134.386093 74.899300,130.425385 
	C75.029442,129.869171 75.093025,129.651550 75.285873,129.124130 
	C75.800621,128.041763 76.355583,127.363075 76.781525,126.257942 
	C76.976059,125.774460 77.057938,125.583557 77.281097,125.117035 
	C77.953392,123.987602 78.585564,123.190529 78.992516,121.923660 
	C79.163422,121.443733 79.237885,121.253258 79.446228,120.786133 
	C80.247459,119.468819 80.789780,118.383942 80.802505,116.786865 
	C80.877350,115.816208 81.010994,115.179604 81.337997,114.248352 
	C82.070419,113.008255 82.716377,112.093346 82.758026,110.559753 
	C85.901337,104.763374 87.367729,98.597855 90.363503,93.103775 
	C91.156586,91.649300 91.726929,90.063515 93.747215,89.186256 
	C94.649765,88.869141 95.413757,88.512718 95.858406,88.751350 
	C103.803375,93.015221 110.669670,98.335297 114.336815,107.019798 
	C114.849861,108.234787 115.652870,109.315933 115.430756,110.628967 
	C114.699959,114.949112 116.638855,116.118927 120.673241,115.740005 
	C124.131516,115.415199 127.644661,115.674202 131.133545,115.675941 
	C136.268875,115.678497 138.006149,112.611328 136.114670,107.863754 
	C133.307709,100.818306 130.985306,93.006889 125.627769,87.999939 
	C120.816650,83.503624 116.302010,77.846359 109.434776,75.709167 
	C106.538170,74.807693 103.878716,73.356010 101.183762,71.291817 
	C100.133736,70.097946 100.083374,68.984299 100.654984,67.858078 
	C106.502663,56.336666 110.607094,44.030029 116.771568,32.631939 
	C120.792938,25.196424 122.954414,16.889759 126.860695,8.959888 
	C127.169273,8.167072 127.374886,7.731127 127.764664,6.995486 
	C128.729141,5.499234 128.729706,4.099473 129.071198,2.432701 
	C129.292328,1.905146 129.413910,1.709084 129.767731,1.256511 
	C133.992065,1.000000 139.511185,-0.554565 141.542847,1.441147 
	C143.538635,3.401626 141.998901,8.968267 141.998993,12.952401 
	C142.000427,78.322495 142.000000,143.692596 142.000000,209.531342 
	C139.387985,209.877060 138.382828,209.047592 138.418350,205.918854 
	C138.657593,184.846832 138.546951,163.770859 138.397156,142.267776 
	C136.920639,140.942902 135.409698,141.000031 133.914307,141.003632 
	C117.127937,141.043900 100.341255,140.892334 83.093323,141.132172 
	C82.631531,141.185013 82.330780,141.318710 82.257423,141.466034 
	C81.777321,146.469696 82.111069,151.336411 81.966965,156.601746 
z"/>
<path fill="#FEFBFB" opacity="1.000000" stroke="none" 
	d="
M84.162323,66.677887 
	C79.104172,67.048447 74.313278,67.320236 69.534630,67.178543 
	C67.237625,67.110443 65.441483,67.679665 63.435429,69.086014 
	C62.366051,68.246330 61.347698,67.955223 60.455608,66.906387 
	C59.144493,63.726009 60.076103,60.642788 59.167015,57.401985 
	C58.949802,56.829651 58.856777,56.602745 58.620323,56.037762 
	C58.389561,55.472088 58.302227,55.244495 58.111824,54.667656 
	C57.572968,52.217316 57.758793,50.086002 57.683037,47.641190 
	C57.696209,46.225048 57.363571,45.321793 56.105526,44.572071 
	C55.726986,44.208065 55.593349,44.042248 55.320011,43.585873 
	C54.262508,41.032925 55.720207,38.545479 54.381023,36.003235 
	C53.571018,33.959229 53.900692,32.062340 53.221035,29.991631 
	C52.844265,29.262318 52.644119,28.835209 52.321110,28.067490 
	C49.568436,19.911617 47.186348,11.977036 40.830032,6.104455 
	C39.504177,4.879501 38.091953,3.637769 37.877617,1.344409 
	C60.020893,1.000000 82.041786,1.000000 104.531342,1.000000 
	C105.142525,1.148581 105.285057,1.297163 105.523537,1.740376 
	C105.611832,2.241910 105.604164,2.448812 105.506332,2.952560 
	C105.324471,3.435302 105.232750,3.621197 104.868271,4.367726 
	C104.369965,5.539009 104.267136,6.173566 104.208801,7.173623 
	C101.947525,16.052048 98.881958,24.270731 95.213058,32.286854 
	C91.528694,40.336761 90.715446,49.268600 87.679680,57.537086 
	C86.594955,60.491535 85.670021,63.507084 84.162323,66.677887 
z"/>
<path fill="#FDFBFA" opacity="1.000000" stroke="none" 
	d="
M50.626728,70.695328 
	C43.477028,73.740402 36.174652,76.027664 30.981188,81.724052 
	C29.150778,83.731712 26.453737,83.435730 24.841438,85.458824 
	C17.982330,94.065552 11.338419,102.629601 8.008572,113.534523 
	C6.951073,116.997734 7.140312,120.828835 4.791923,124.140076 
	C3.292241,124.696274 2.367844,124.368965 1.286586,123.268967 
	C1.000000,100.645775 1.000000,78.291542 1.000000,55.468658 
	C2.624195,53.746006 1.513140,51.566658 2.877858,49.913361 
	C3.306283,49.578205 3.499261,49.474911 4.006062,49.294739 
	C4.530621,49.208275 4.741355,49.198685 5.260873,49.218163 
	C6.154318,49.333103 6.732914,49.472267 7.609905,49.416840 
	C8.229992,49.356796 8.570489,49.340096 9.083881,49.404549 
	C9.256147,49.435989 9.455832,49.664227 9.455832,49.664227 
	C9.455832,49.664227 9.565985,49.352657 9.453880,49.176140 
	C9.295481,48.677582 9.296305,48.355530 9.392851,47.752041 
	C9.684142,46.504623 9.900313,45.531498 10.339567,44.306610 
	C10.870845,43.345657 11.380292,42.717560 11.636900,41.625465 
	C11.837530,40.058792 11.781186,38.779289 12.030106,37.198315 
	C12.168298,36.675678 12.240575,36.472057 12.463423,35.984028 
	C13.268143,34.873917 13.769964,33.967785 14.181231,32.662739 
	C14.401546,32.193081 14.505105,32.012897 14.799891,31.588865 
	C15.255667,31.023737 15.510312,30.694782 15.923026,30.085667 
	C16.661316,28.838373 17.480204,28.094038 18.613813,27.164307 
	C19.280149,26.649967 19.686714,26.379993 20.437168,25.932629 
	C27.007303,22.968147 36.913414,26.048775 40.682861,32.366272 
	C45.330456,40.155529 48.041771,48.756027 49.303616,57.689457 
	C49.894409,61.872093 52.743423,65.846024 50.626728,70.695328 
z"/>
<path fill="#DD2926" opacity="1.000000" stroke="none" 
	d="
M15.964323,31.724483 
	C15.682790,31.784138 15.332414,31.936914 15.226299,32.095867 
	C13.808426,32.995148 14.227750,34.534813 13.446398,35.869530 
	C13.309535,36.155807 13.178452,36.149158 13.175068,36.214699 
	C11.775257,37.923279 12.740127,39.825630 12.668674,41.951248 
	C12.360141,42.910767 11.969856,43.524235 11.391569,44.341904 
	C9.947093,44.925201 10.731179,46.087776 10.089622,47.055893 
	C9.597466,47.317478 9.354389,47.321774 8.800989,47.124901 
	C7.106360,45.108238 5.851610,43.219463 5.038435,40.640678 
	C4.272201,35.472866 4.841365,30.649193 4.497547,25.463844 
	C4.425347,24.825775 4.393918,24.572891 4.398145,23.948996 
	C4.519818,23.352798 4.605834,23.127613 4.908988,22.626427 
	C7.124379,21.076555 6.681101,18.991373 6.902863,16.798021 
	C6.988856,16.276333 7.037862,16.071514 7.202606,15.575565 
	C7.697161,14.563959 8.315331,14.009200 8.827826,13.025485 
	C9.044393,12.582292 9.131318,12.405128 9.361225,11.969009 
	C10.038604,10.894638 10.617816,10.105777 11.121149,8.927935 
	C11.452403,8.317350 11.691592,8.002516 12.201266,7.532348 
	C12.908834,7.013974 13.412249,6.717839 14.060123,6.129354 
	C14.401947,5.783219 14.536576,5.641216 14.867668,5.278934 
	C15.628643,4.466629 15.964354,3.727432 16.548920,2.766306 
	C17.032578,2.179850 17.389091,1.935453 18.107574,1.650182 
	C19.773911,1.452890 21.129465,1.600408 22.737961,1.215193 
	C27.689257,1.000000 32.378513,1.000000 37.533882,1.000000 
	C38.328465,1.539967 38.529438,2.264529 39.004311,2.592506 
	C47.572571,8.510255 50.330330,17.757067 53.253479,27.379860 
	C53.317551,28.032606 53.231022,28.324665 53.158955,28.620913 
	C53.050114,29.068344 53.022629,29.524496 53.006863,29.982130 
	C53.424126,29.845055 53.307690,29.342688 53.869492,28.938501 
	C54.406288,30.876225 54.671474,32.994083 55.054497,35.510433 
	C56.221581,38.398346 54.474827,41.054371 55.902748,43.711029 
	C56.178608,43.884392 56.077614,43.912758 56.101246,43.865932 
	C56.673069,44.675346 57.502647,45.346947 57.862862,46.740452 
	C58.326073,49.496647 57.341282,52.022346 58.997360,54.454643 
	C59.333485,54.596016 59.275230,54.708141 59.332893,54.682320 
	C59.285614,55.126644 59.429581,55.486828 60.186291,55.657433 
	C60.656551,59.067005 60.801006,62.539402 61.010040,66.453659 
	C61.375332,67.223778 61.510914,67.613083 61.350571,68.338478 
	C58.031368,70.150230 53.942364,67.898918 50.819633,71.066177 
	C49.270969,62.341377 48.001198,53.702030 44.587559,45.407703 
	C43.266560,42.197998 41.813869,38.902596 40.846859,35.588394 
	C38.833408,28.687757 32.169537,28.413195 27.529039,25.354538 
	C25.096193,23.750996 23.128115,26.841082 20.432552,27.477856 
	C19.859835,27.574074 19.663862,27.549099 19.369164,27.803530 
	C18.529392,28.771870 17.788347,29.460804 16.924791,30.427467 
	C16.742222,31.097794 16.550919,31.414291 15.964323,31.724483 
z"/>
<path fill="#FBFBFA" opacity="1.000000" stroke="none" 
	d="
M4.029736,161.574554 
	C5.869615,162.054153 6.101842,163.079788 6.228521,164.345505 
	C7.243347,174.485275 11.943571,183.062408 17.553551,191.303223 
	C19.176914,193.687881 20.537676,196.153061 22.538645,198.358383 
	C28.597414,205.035950 36.088634,209.521347 44.114365,213.892029 
	C44.632591,214.664078 44.821556,215.165527 44.995865,215.959503 
	C45.130039,216.558197 45.217163,216.895386 45.414093,217.468658 
	C45.583523,217.864639 45.654408,218.021622 45.834946,218.412292 
	C46.019554,218.800903 46.094505,218.955811 46.281563,219.342407 
	C46.462898,219.730087 46.532127,219.886093 46.689419,220.280685 
	C46.878819,220.835938 46.979351,221.152878 47.173340,221.692612 
	C47.267605,221.915146 47.487122,222.338593 47.617592,222.535187 
	C47.748066,222.731766 48.056759,223.087372 48.436459,223.368515 
	C49.106945,223.797028 49.407967,223.919205 49.969154,224.085602 
	C50.388000,224.209732 50.556915,224.264481 50.976913,224.421967 
	C51.563862,224.685883 51.894428,224.857315 52.472813,225.187073 
	C52.880131,225.461533 53.034786,225.586990 53.363293,225.960464 
	C53.605328,226.400696 53.673512,226.592896 53.773392,227.091293 
	C53.769035,227.812607 53.643456,228.198608 53.214180,228.777740 
	C36.574009,229.000000 20.147459,228.934036 3.722640,229.072952 
	C1.330225,229.093185 0.912089,228.552475 0.933754,226.246063 
	C1.066217,212.144196 1.000000,198.040436 1.000000,183.468658 
	C2.111077,181.946930 2.225365,180.764984 1.228261,179.234436 
	C1.000000,173.645065 1.000000,168.290146 1.000000,162.467606 
	C1.770750,161.385742 2.631045,161.171326 4.029736,161.574554 
z"/>
<path fill="#FAF9F9" opacity="1.000000" stroke="none" 
	d="
M66.367996,219.406006 
	C72.739944,217.876175 78.937500,219.384827 85.008377,218.677368 
	C89.852661,218.112839 94.491508,216.314621 99.218742,215.223862 
	C106.586983,213.523727 111.978699,209.025360 117.868080,204.939102 
	C119.803162,203.596481 121.332832,206.189133 121.764977,208.340958 
	C123.432442,216.644119 123.418060,216.642502 131.624146,216.651779 
	C134.784668,216.655365 137.945175,216.684586 141.552841,216.851074 
	C142.000000,220.981293 143.545197,226.445084 141.556259,228.518143 
	C139.647644,230.507477 134.074844,228.996613 130.112259,228.997498 
	C107.053947,229.002625 83.995628,229.000000 60.468658,229.000000 
	C59.674400,228.677383 59.466480,228.293518 59.431755,227.505798 
	C59.631439,226.762360 59.854252,226.387756 60.391823,225.848145 
	C61.327694,225.191940 62.143845,224.988144 63.047897,224.326340 
	C63.633606,223.638657 63.914989,223.107986 64.224709,222.239227 
	C64.478416,221.546692 64.645348,221.158768 64.981483,220.497925 
	C65.401215,219.886169 65.706123,219.594955 66.367996,219.406006 
z"/>
<path fill="#FEF5F4" opacity="1.000000" stroke="none" 
	d="
M10.474396,11.647415 
	C10.433210,11.952802 10.043790,12.236876 9.927179,12.447799 
	C9.606495,13.320766 9.131610,13.834557 8.691814,14.755011 
	C8.458862,15.285570 8.366907,15.505866 8.206158,16.077570 
	C6.061779,18.005432 7.718112,20.646553 6.155410,22.691067 
	C5.889775,22.937023 5.480548,23.047741 5.315810,23.181129 
	C4.753650,23.560169 4.437963,23.887085 3.885610,24.456577 
	C2.876978,24.838469 2.193449,24.799561 1.267753,24.229301 
	C1.000000,17.078135 1.073143,10.154979 0.950963,3.235271 
	C0.918533,1.398586 1.328659,0.881171 3.217210,0.947344 
	C7.826128,1.108836 12.444517,1.000000 17.529547,1.000000 
	C18.177649,1.167611 18.355295,1.335223 18.265144,1.752839 
	C17.806149,2.297405 17.614948,2.591965 17.225090,3.067971 
	C16.196568,3.848283 16.053751,4.968031 14.957833,5.626233 
	C14.662844,5.663626 15.017780,5.867620 14.838483,5.772608 
	C14.534719,6.614036 13.781714,7.068150 12.854865,7.693547 
	C12.284746,7.829872 12.076165,7.974387 11.840078,8.370678 
	C11.535364,9.563158 10.770535,10.339085 10.474396,11.647415 
z"/>
<path fill="#D1D1D1" opacity="1.000000" stroke="none" 
	d="
M4.407394,161.282074 
	C3.537124,162.068115 2.609581,162.406021 1.341019,162.371964 
	C1.000000,149.312439 1.000000,136.624878 1.000000,123.468658 
	C2.464436,121.415443 2.823029,123.409904 4.040342,124.046814 
	C4.390726,136.457138 4.370423,148.645538 4.407394,161.282074 
z"/>
<path fill="#FCC1C1" opacity="1.000000" stroke="none" 
	d="
M1.000000,24.468658 
	C1.595993,22.982012 2.377236,23.481968 3.521368,23.851086 
	C4.103663,24.202448 4.293569,24.442900 4.657588,25.108545 
	C5.225517,32.246529 4.702238,38.984764 5.374926,46.152321 
	C5.298228,47.556530 5.104015,48.457947 4.286779,49.627869 
	C2.176817,51.416767 4.267584,54.477379 1.333562,55.286064 
	C1.000000,44.979103 1.000000,34.958210 1.000000,24.468658 
z"/>
<path fill="#FFCBC8" opacity="1.000000" stroke="none" 
	d="
M105.659897,2.621806 
	C105.210594,2.137434 105.149529,1.913728 105.044235,1.345011 
	C113.020897,1.000000 121.041801,1.000000 129.531342,1.000000 
	C129.999649,1.179887 129.999313,1.359774 129.973541,1.808292 
	C129.220718,2.706493 128.388031,3.112480 126.968323,3.311624 
	C119.684555,3.196793 112.844254,3.981749 105.659897,2.621806 
z"/>
<path fill="#FAB8B4" opacity="1.000000" stroke="none" 
	d="
M59.714844,226.720337 
	C60.024532,227.466446 60.028450,227.904282 60.016182,228.671051 
	C57.958332,229.000000 55.916668,229.000000 53.437500,229.000000 
	C52.982265,228.574615 52.964527,228.149216 52.948418,227.404449 
	C53.168594,226.898911 53.387146,226.712723 53.977211,226.305237 
	C56.078060,225.537125 57.770100,225.565399 59.714844,226.720337 
z"/>
<path fill="#010000" opacity="1.000000" stroke="none" 
	d="
M1.000000,179.399994 
	C3.724450,180.167404 2.651944,181.869522 1.321280,183.281372 
	C1.000000,181.933334 1.000000,180.866653 1.000000,179.399994 
z"/>
<path fill="#FFC7BB" opacity="1.000000" stroke="none" 
	d="
M18.386696,1.993999 
	C17.983475,1.835665 17.969601,1.668487 17.977863,1.250654 
	C19.388889,1.000000 20.777779,1.000000 22.583334,1.000000 
	C21.903193,2.662600 20.197357,1.713927 18.386696,1.993999 
z"/>
<path fill="#FAF7F7" opacity="1.000000" stroke="none" 
	d="
M46.339516,192.915085 
	C41.434704,191.370193 38.631733,187.372604 35.869347,183.694153 
	C32.277058,178.910583 29.278305,173.548248 27.812447,167.681183 
	C26.886921,163.976807 25.572502,160.173096 25.305927,156.513748 
	C24.653912,147.563263 24.398169,138.455978 25.375179,129.564774 
	C25.923988,124.570419 27.660568,119.443001 29.402601,114.477676 
	C31.409060,108.758644 34.963425,103.942574 38.529434,99.580536 
	C41.464817,95.989906 45.944065,93.006638 50.239639,90.561218 
	C51.421322,89.888496 52.317379,88.424728 54.250629,88.501053 
	C55.088951,88.382729 55.409241,88.576736 55.623657,89.416512 
	C55.700752,90.684578 55.704575,91.611870 56.034393,92.871887 
	C56.587646,95.730415 56.001244,98.344589 57.023113,101.192764 
	C56.386383,109.918930 59.889614,117.839592 59.488895,126.154648 
	C59.366234,128.699860 61.080589,130.829056 61.881626,133.624954 
	C62.641685,137.721405 62.390282,141.429031 62.205563,145.534241 
	C59.594193,151.076599 57.230247,156.298737 55.353874,162.101379 
	C55.204449,162.655746 55.132191,162.869217 54.922989,163.381577 
	C54.362366,164.562469 53.423996,165.220856 53.657066,166.666046 
	C53.742268,167.360657 53.753204,167.761032 53.683144,168.462769 
	C53.519119,169.150726 53.375835,169.527969 53.066425,170.160660 
	C52.829418,170.597824 52.727024,170.767410 52.452763,171.175690 
	C51.786034,172.009018 51.350536,172.633423 51.240437,173.733887 
	C51.143753,174.863586 51.023693,175.685150 50.654747,176.783691 
	C49.345760,178.495758 49.203419,180.205597 49.113529,182.275345 
	C49.029064,182.830856 48.981640,183.051926 48.826462,183.596130 
	C48.536278,184.336380 48.338615,184.746140 47.984467,185.459351 
	C47.158516,187.046738 47.319004,188.444962 47.249634,190.174561 
	C47.162529,191.281433 46.964024,191.988358 46.339516,192.915085 
z"/>
<path fill="#DC2925" opacity="1.000000" stroke="none" 
	d="
M47.882591,184.651672 
	C48.176571,184.222198 48.199169,183.985260 48.341599,183.412018 
	C49.459610,181.275665 48.542320,179.128387 49.645592,176.980042 
	C49.978813,175.690735 50.170879,174.743195 50.459496,173.444489 
	C50.834671,172.363266 51.212254,171.683411 51.633942,170.723251 
	C51.657246,170.432404 51.811790,170.117981 51.971207,170.045364 
	C52.364765,169.694443 52.574875,169.399033 52.737061,168.815308 
	C52.656349,168.219482 52.599415,167.894821 52.612083,167.329620 
	C52.971416,166.225754 52.991886,165.274780 53.754566,164.233337 
	C54.069107,163.783600 54.156639,163.592072 54.444824,163.156601 
	C57.137596,158.236862 57.412724,152.589447 61.246796,148.106171 
	C62.325005,142.693192 62.372940,137.574524 61.225220,132.113312 
	C60.636745,131.074631 60.257950,130.373856 59.982094,129.196503 
	C59.250900,125.088486 59.979984,121.309723 59.220661,117.224396 
	C58.679741,116.152977 58.281513,115.456696 57.890015,114.319305 
	C57.426586,110.544815 57.871010,107.128235 57.323612,103.371643 
	C56.985966,102.540558 56.783039,102.069824 56.516354,101.218002 
	C55.873730,98.396004 55.418365,95.932800 55.510239,93.033340 
	C55.467049,92.180984 55.402512,91.700493 55.373379,90.872543 
	C55.723564,89.488045 56.584633,89.092224 57.752113,88.525772 
	C58.052521,88.348488 58.358452,88.051422 58.557159,87.974106 
	C59.115253,87.760529 59.439129,87.566284 59.849022,87.048805 
	C60.402691,86.697609 60.829361,86.602715 61.583389,86.559204 
	C65.428574,87.141953 63.664421,90.765862 65.493431,92.690109 
	C66.157791,93.831268 66.452049,94.737640 66.553757,96.073029 
	C66.517029,100.764374 65.642319,105.121582 67.341492,109.612198 
	C68.564011,110.495033 69.037689,111.645699 70.112892,112.256042 
	C72.267151,107.675522 71.607872,102.230721 74.870987,97.734665 
	C76.964279,96.397118 76.673752,94.680908 76.379333,92.624573 
	C76.489929,90.592072 76.564270,88.891693 77.686386,87.086853 
	C83.294830,85.528389 88.483055,85.739571 93.670319,88.865730 
	C89.938477,95.705666 88.362488,103.635071 83.936028,110.641907 
	C83.097954,111.719414 83.029335,112.785179 82.209557,113.775070 
	C81.935928,114.721420 81.875793,115.463692 81.724442,116.566879 
	C80.977257,117.873291 81.033295,119.100784 80.115265,120.243759 
	C79.818817,120.688606 79.802414,120.943115 79.665588,121.560730 
	C79.160057,122.653839 78.845131,123.421349 78.110580,124.264244 
	C77.806740,124.679298 77.770554,124.937752 77.587646,125.559128 
	C77.103325,126.698097 76.827568,127.502525 76.128487,128.420563 
	C75.874756,128.611984 75.888512,128.848038 75.774094,128.877823 
	C74.730736,132.748978 73.046028,136.375320 72.187897,140.597870 
	C71.958282,140.893570 71.955070,140.971786 71.916962,140.962875 
	C71.561256,141.306641 71.259140,141.672104 70.805496,142.369934 
	C70.217781,147.151886 70.090736,151.611755 70.895615,156.430923 
	C71.451164,157.528229 71.867218,158.251160 72.181023,159.493927 
	C72.596642,171.139084 72.340607,182.354080 72.401573,193.999817 
	C72.481552,196.696838 71.103065,198.627853 70.814041,201.223328 
	C69.984688,201.671616 69.276604,201.731842 68.220490,201.708359 
	C67.302628,201.819824 66.763596,201.749359 66.002991,201.302963 
	C65.606255,201.089188 65.459145,201.009277 65.150993,200.736694 
	C64.821358,200.520370 64.652779,200.496719 64.482948,200.217712 
	C62.649117,199.897339 60.816536,199.832321 58.544891,199.646576 
	C55.273407,197.213486 51.720093,196.250854 48.392914,194.195648 
	C47.613598,193.816055 47.053131,193.695877 46.285629,193.380188 
	C46.133049,192.368683 46.187500,191.552673 46.359810,190.344727 
	C47.175491,188.745529 46.909721,187.373657 47.242683,185.770630 
	C47.435181,185.251434 47.523197,185.047821 47.882591,184.651672 
z"/>
<path fill="#DD2925" opacity="1.000000" stroke="none" 
	d="
M84.258102,67.083588 
	C83.811333,60.432163 87.243385,54.838898 89.098610,48.892151 
	C90.230621,45.263634 90.195610,41.447594 92.043381,37.794792 
	C95.452728,31.054956 97.545876,23.639416 100.057663,16.460014 
	C101.163200,13.300051 101.950981,10.028914 102.930450,6.409103 
	C103.434242,5.615400 103.500229,5.043283 103.889290,4.352445 
	C104.119904,4.191668 104.122070,4.101166 104.164978,4.115576 
	C104.469826,3.938754 104.731766,3.747524 105.450577,3.388737 
	C112.188644,2.751535 118.478508,3.111268 124.763596,3.021369 
	C128.051407,2.974342 129.385635,4.396413 128.259399,8.144606 
	C128.210968,13.095838 125.105309,16.360849 123.444824,20.113644 
	C117.561119,33.411129 111.982246,46.850082 105.581726,59.936073 
	C103.968391,63.234570 102.172173,66.770721 100.905136,70.776642 
	C95.661255,68.969902 89.575851,70.437698 84.258102,67.083588 
z"/>
<path fill="#F9E7E6" opacity="1.000000" stroke="none" 
	d="
M76.112549,97.725555 
	C74.055656,99.001480 73.544632,100.512848 73.525642,102.541252 
	C73.483521,107.039375 70.420570,110.868988 71.301117,115.706398 
	C68.195976,114.911568 69.693069,111.903969 67.328468,111.121841 
	C65.018196,107.438919 66.441399,103.582680 66.004288,99.507545 
	C66.004265,98.620628 66.005936,98.119316 66.017883,97.256355 
	C66.043060,96.655998 66.059784,96.417282 66.233780,95.855888 
	C65.923286,94.848793 65.455536,94.164368 64.835403,93.206139 
	C63.532864,91.007858 64.395073,89.022919 64.772263,86.722321 
	C67.991974,85.391426 71.432877,87.398163 74.231956,84.562134 
	C75.139465,83.642639 75.943710,86.199387 77.588730,86.610153 
	C77.577751,88.592316 78.218956,90.516518 77.029343,92.568008 
	C76.938911,94.459740 77.266670,96.026749 76.112549,97.725555 
z"/>
<path fill="#D32A28" opacity="1.000000" stroke="none" 
	d="
M65.380821,221.776276 
	C65.006104,222.930801 64.766212,223.777832 64.271606,224.839447 
	C63.412369,225.534531 62.692699,225.475723 61.640831,225.497681 
	C59.131344,226.292221 56.786156,224.707138 54.353981,226.161224 
	C53.820656,226.352249 53.598038,226.401978 53.064194,226.309540 
	C52.610226,226.046936 52.467480,225.926498 52.183182,225.564285 
	C51.843594,225.368698 51.645550,225.414886 51.292374,225.198456 
	C50.949123,224.957947 50.761005,224.980072 50.293751,224.949219 
	C49.579056,224.552948 49.032536,224.498886 48.415009,224.085266 
	C48.298832,223.843445 48.132847,223.792236 48.133213,223.705383 
	C47.923809,223.577240 47.714039,223.535934 47.440262,223.180359 
	C47.376259,222.866119 47.207405,222.872787 47.185196,222.791260 
	C46.167187,222.227844 46.667332,221.248444 46.294624,220.233231 
	C46.156700,219.953003 46.039680,219.888199 46.075428,219.831665 
	C45.924458,219.699371 45.737743,219.623627 45.553474,219.245636 
	C45.406521,218.862411 45.257122,218.781433 44.954262,218.496948 
	C44.803074,217.942734 44.680656,217.642960 44.304749,217.181915 
	C44.128506,216.277267 44.081074,215.584824 44.146835,214.570374 
	C49.258049,213.855972 53.480259,216.843567 58.281376,217.623917 
	C60.659859,218.010529 63.298103,218.506439 66.223511,219.310577 
	C66.561646,219.816193 66.443329,220.171936 66.166351,220.769775 
	C65.843681,221.164185 65.679665,221.316498 65.380821,221.776276 
z"/>
<path fill="#CD4946" opacity="1.000000" stroke="none" 
	d="
M70.969055,201.769577 
	C69.602715,199.942627 70.963799,198.442780 71.032333,196.524521 
	C72.076317,184.047470 71.287079,171.878220 71.238586,159.306519 
	C70.767876,158.435715 70.517532,157.978287 70.153130,157.285858 
	C68.929100,152.001755 69.735535,146.895096 69.840393,141.412842 
	C70.494682,140.982651 70.890099,140.956940 71.582176,140.942596 
	C71.898499,147.113068 70.195351,153.294907 73.357788,159.375977 
	C74.451019,161.478149 73.626808,164.590805 73.633537,167.242004 
	C73.649521,173.543991 73.660339,179.846130 73.631805,186.148041 
	C73.609131,191.155396 74.210594,196.248749 71.816154,201.354477 
	C71.653442,201.810867 71.449402,201.869308 70.969055,201.769577 
z"/>
<path fill="#4C4C4C" opacity="1.000000" stroke="none" 
	d="
M83.089241,141.381561 
	C84.104103,140.001663 85.825729,140.619034 87.419212,140.614197 
	C102.674416,140.567886 117.929863,140.576004 133.185120,140.615585 
	C134.806686,140.619797 136.501785,140.153152 138.147949,141.451126 
	C120.012123,141.752319 101.779533,141.665222 83.089241,141.381561 
z"/>
<path fill="#4C4C4C" opacity="1.000000" stroke="none" 
	d="
M82.217308,156.691284 
	C81.196655,152.074905 81.661369,147.121582 81.939278,141.894577 
	C83.243599,146.514801 82.905327,151.444382 82.217308,156.691284 
z"/>
<path fill="#A92D2C" opacity="1.000000" stroke="none" 
	d="
M48.188118,194.280762 
	C51.713650,195.025894 55.247440,196.126953 58.018677,199.212296 
	C54.628567,198.248093 51.190048,196.892044 48.188118,194.280762 
z"/>
<path fill="#B92523" opacity="1.000000" stroke="none" 
	d="
M64.735413,86.254974 
	C64.984665,88.298622 64.931419,90.213127 64.780594,92.529984 
	C61.154148,92.214417 64.895256,88.300148 62.042641,86.918747 
	C62.751465,86.448997 63.592186,86.287422 64.735413,86.254974 
z"/>
<path fill="#B92523" opacity="1.000000" stroke="none" 
	d="
M57.616753,88.271591 
	C57.905117,89.229179 57.415005,89.787643 56.223824,90.016304 
	C55.745861,90.158516 55.570572,90.255959 55.159893,90.166077 
	C54.792435,89.668999 54.660370,89.359230 54.553131,88.798477 
	C55.445633,88.429886 56.313309,88.312294 57.616753,88.271591 
z"/>
<path fill="#DE615F" opacity="1.000000" stroke="none" 
	d="
M61.483696,68.777740 
	C61.127254,68.239143 61.056858,67.856598 61.030544,67.184799 
	C62.014275,66.990532 62.574615,67.575668 63.009514,68.682281 
	C62.618839,68.976532 62.194290,68.955170 61.483696,68.777740 
z"/>
<path fill="#A92D2C" opacity="1.000000" stroke="none" 
	d="
M65.841927,201.418579 
	C66.322578,201.187637 66.891792,201.206177 67.666733,201.424683 
	C67.251091,202.800217 66.594452,202.397583 65.841927,201.418579 
z"/>
<path fill="#A92D2C" opacity="1.000000" stroke="none" 
	d="
M64.437706,200.134369 
	C64.647171,200.039352 64.782051,200.152725 64.938141,200.423248 
	C64.989944,200.544022 64.636818,200.562729 64.636818,200.562729 
	C64.636818,200.562729 64.393715,200.306351 64.437706,200.134369 
z"/>
<path fill="#B92523" opacity="1.000000" stroke="none" 
	d="
M59.684277,86.856644 
	C59.761814,87.112808 59.547604,87.433105 59.044624,87.825104 
	C58.968082,87.571457 59.180309,87.246117 59.684277,86.856644 
z"/>
<path fill="#C71F1D" opacity="1.000000" stroke="none" 
	d="
M128.452271,8.508966 
	C128.465836,4.973691 126.873108,3.725187 123.188568,3.924120 
	C117.566727,4.227650 111.916542,4.006196 105.834206,4.008987 
	C105.172462,3.927622 104.954903,3.844916 104.921341,3.465513 
	C105.105347,3.168815 105.202286,2.767879 105.236969,2.564510 
	C112.178238,2.349751 119.084831,2.338362 126.453514,2.346161 
	C129.954498,2.387377 129.526321,4.534775 129.361023,6.884786 
	C129.105118,7.661345 128.923416,8.028655 128.452271,8.508966 
z"/>
<path fill="#CD4946" opacity="1.000000" stroke="none" 
	d="
M72.313843,140.802490 
	C71.909081,136.699280 73.301094,132.877731 75.329536,129.021515 
	C76.270134,133.249374 73.452225,136.722626 72.313843,140.802490 
z"/>
<path fill="#D76764" opacity="1.000000" stroke="none" 
	d="
M129.637543,7.081161 
	C128.877502,5.722338 129.863358,3.596670 127.208984,2.582638 
	C127.669121,2.259458 128.422638,2.153568 129.562134,2.062300 
	C130.436768,3.670061 130.615250,5.265799 129.637543,7.081161 
z"/>
<path fill="#CD4946" opacity="1.000000" stroke="none" 
	d="
M80.151901,120.356483 
	C80.035728,119.252777 79.836494,117.925247 81.341316,117.020981 
	C82.291016,118.408348 81.852600,119.507927 80.151901,120.356483 
z"/>
<path fill="#CD4946" opacity="1.000000" stroke="none" 
	d="
M82.329025,113.899384 
	C81.991669,112.870056 81.924026,111.735870 83.456039,111.040405 
	C84.309563,112.274696 83.827271,113.180801 82.329025,113.899384 
z"/>
<path fill="#CD4946" opacity="1.000000" stroke="none" 
	d="
M78.141426,124.381989 
	C77.924751,123.484932 78.090195,122.590622 79.278328,121.998138 
	C80.103775,123.153770 79.404770,123.809174 78.141426,124.381989 
z"/>
<path fill="#CD4946" opacity="1.000000" stroke="none" 
	d="
M76.177147,128.553070 
	C75.932808,127.659790 76.023277,126.721016 77.175476,126.017021 
	C78.029099,127.119049 77.436073,127.874542 76.177147,128.553070 
z"/>
<path fill="#DE615F" opacity="1.000000" stroke="none" 
	d="
M59.266418,54.175400 
	C54.816971,53.674572 57.837402,50.111511 57.006821,47.468136 
	C57.207314,46.592640 57.510685,46.261059 58.263233,45.988663 
	C58.805298,48.555458 59.002323,51.155121 59.266418,54.175400 
z"/>
<path fill="#C92A26" opacity="1.000000" stroke="none" 
	d="
M56.145515,43.489662 
	C54.815063,43.907154 53.590908,43.212143 54.299538,41.923275 
	C55.368801,39.978477 54.017750,38.135895 54.897755,36.113838 
	C57.878441,37.991234 55.114498,40.789150 56.145515,43.489662 
z"/>
<path fill="#C82420" opacity="1.000000" stroke="none" 
	d="
M54.160828,28.516361 
	C53.580215,30.567173 54.639965,32.670502 52.806793,34.873100 
	C51.749535,32.365131 51.561409,30.347660 53.087730,27.994839 
	C53.792553,27.756454 54.044468,27.932487 54.160828,28.516361 
z"/>
<path fill="#C92A26" opacity="1.000000" stroke="none" 
	d="
M58.609238,45.647545 
	C58.227592,46.248867 57.846916,46.541943 57.245819,46.933296 
	C56.714367,46.187683 56.403339,45.343792 56.108597,44.159504 
	C57.177662,43.959068 58.190609,44.164162 58.609238,45.647545 
z"/>
<path fill="#D76764" opacity="1.000000" stroke="none" 
	d="
M103.802841,4.251339 
	C103.902306,4.700502 103.684708,5.209334 103.222496,5.864061 
	C102.712029,5.313557 102.957283,4.769950 103.802841,4.251339 
z"/>
<path fill="#DE615F" opacity="1.000000" stroke="none" 
	d="
M60.428947,55.336494 
	C60.158535,55.480732 59.804966,55.366852 59.420975,54.954735 
	C59.708969,54.797127 60.027382,54.937752 60.428947,55.336494 
z"/>
<path fill="#D76764" opacity="1.000000" stroke="none" 
	d="
M104.869888,3.231744 
	C105.105347,3.168815 105.274529,3.579914 105.332275,3.795121 
	C105.195221,4.052468 105.000420,4.094608 104.506752,4.133367 
	C104.192963,3.771307 104.335144,3.492870 104.869888,3.231744 
z"/>
<path fill="#C52120" opacity="1.000000" stroke="none" 
	d="
M4.437261,47.220280 
	C4.385849,39.943386 4.365879,32.994068 4.368355,25.585636 
	C4.380969,24.689816 4.518267,24.301556 5.095714,23.981047 
	C6.735231,29.312130 5.638231,34.705719 6.014773,40.509644 
	C6.644947,43.400913 7.484714,45.792103 7.148635,48.780983 
	C6.953070,49.460587 6.841498,49.722160 6.457512,50.311977 
	C5.974021,50.559425 5.762946,50.478622 5.259048,50.226974 
	C4.285975,49.322071 4.608580,48.389091 4.437261,47.220280 
z"/>
<path fill="#FCC1C1" opacity="1.000000" stroke="none" 
	d="
M13.653527,36.092102 
	C13.252671,34.792007 13.203779,33.430820 14.812506,32.383675 
	C15.132114,33.627563 15.556238,35.122936 13.653527,36.092102 
z"/>
<path fill="#C52120" opacity="1.000000" stroke="none" 
	d="
M8.750002,46.783905 
	C8.980091,46.990463 9.425887,47.009583 9.648906,47.015709 
	C10.070891,47.123001 10.269857,47.224167 10.514932,47.656948 
	C10.461190,48.444435 10.361341,48.900307 10.149869,49.725929 
	C9.544819,50.215168 9.051391,50.334648 8.189243,50.549561 
	C7.692050,50.486561 7.563576,50.328136 7.322231,49.883759 
	C7.136078,49.190826 7.115006,48.780815 7.194806,48.063179 
	C7.334464,47.568451 7.417303,47.378799 7.711022,46.962006 
	C8.121239,46.682358 8.320576,46.629852 8.750002,46.783905 
z"/>
<path fill="#FCC1C1" opacity="1.000000" stroke="none" 
	d="
M12.886649,41.879822 
	C11.898326,40.431248 12.045535,38.529854 12.860603,36.448040 
	C13.122080,38.007603 13.072476,39.734970 12.886649,41.879822 
z"/>
<path fill="#FCC1C1" opacity="1.000000" stroke="none" 
	d="
M10.743253,47.751083 
	C10.426372,47.841537 10.291701,47.694504 10.014479,47.284653 
	C10.116735,46.240425 10.361547,45.459011 10.904963,44.611855 
	C11.110866,45.535271 11.018165,46.524433 10.743253,47.751083 
z"/>
<path fill="#D76868" opacity="1.000000" stroke="none" 
	d="
M4.273657,47.264534 
	C4.608807,47.727264 4.811793,48.561817 4.990503,49.726250 
	C4.802884,50.092911 4.639541,50.129692 4.239667,50.082047 
	C4.049255,49.210529 4.095375,48.423443 4.273657,47.264534 
z"/>
<path fill="#FCC1C1" opacity="1.000000" stroke="none" 
	d="
M7.898559,50.462982 
	C7.464530,51.243916 6.947472,51.140556 6.299758,50.803841 
	C6.185096,50.640224 6.028217,50.268692 6.009037,50.067955 
	C6.409108,49.583912 6.872292,49.476501 7.693391,49.704121 
	C8.013208,49.886612 7.976593,50.280975 7.898559,50.462982 
z"/>
<path fill="#FCC1C1" opacity="1.000000" stroke="none" 
	d="
M15.986982,31.760277 
	C15.883003,31.486832 16.083218,31.189524 16.542856,30.798706 
	C16.631912,31.048937 16.461544,31.392675 15.986982,31.760277 
z"/>
<path fill="#FCC1C1" opacity="1.000000" stroke="none" 
	d="
M19.440601,28.079794 
	C19.162670,27.719551 19.292343,27.491108 19.857632,27.498325 
	C20.001507,27.845852 19.853161,28.005054 19.440601,28.079794 
z"/>
<path fill="#FCC1C1" opacity="1.000000" stroke="none" 
	d="
M10.055510,50.027229 
	C10.219992,50.079109 10.345136,50.121658 10.470281,50.164204 
	C10.337246,50.250145 10.204211,50.336082 10.054712,50.258854 
	C10.038248,50.095688 10.016172,50.017899 10.055510,50.027229 
z"/>
<path fill="#DA1B15" opacity="1.000000" stroke="none" 
	d="
M8.004698,49.526752 
	C7.560201,49.940609 7.107193,49.994606 6.322021,49.957909 
	C5.993940,47.202217 5.998025,44.537212 6.009527,41.423546 
	C6.959106,42.765034 8.663261,44.129589 8.977729,46.631058 
	C8.980091,46.990463 8.493454,47.003311 8.248939,47.004982 
	C8.001678,47.726730 7.998932,48.446808 8.004698,49.526752 
z"/>
<path fill="#D04A47" opacity="1.000000" stroke="none" 
	d="
M6.264793,22.894083 
	C6.645174,20.894003 4.888467,18.233675 7.788267,16.530397 
	C7.328096,18.497391 9.065123,21.159565 6.264793,22.894083 
z"/>
<path fill="#D04A47" opacity="1.000000" stroke="none" 
	d="
M10.692598,11.763292 
	C10.205621,10.794725 10.060595,9.653794 11.428383,8.652451 
	C12.031620,9.700181 11.683068,10.688046 10.692598,11.763292 
z"/>
<path fill="#D04A47" opacity="1.000000" stroke="none" 
	d="
M15.006785,5.720448 
	C14.750092,4.505887 15.706315,4.057133 16.747574,3.349828 
	C17.001347,4.445676 16.941614,5.618972 15.006785,5.720448 
z"/>
<path fill="#D04A47" opacity="1.000000" stroke="none" 
	d="
M8.829008,14.947830 
	C8.020950,14.113383 8.313378,13.380862 9.483494,12.726977 
	C9.951197,13.504094 9.820815,14.261691 8.829008,14.947830 
z"/>
<path fill="#D04A47" opacity="1.000000" stroke="none" 
	d="
M12.920443,7.783504 
	C13.051039,7.130064 13.556321,6.499098 14.360395,5.772863 
	C14.909570,6.838927 14.571061,7.622845 12.920443,7.783504 
z"/>
<path fill="#D76868" opacity="1.000000" stroke="none" 
	d="
M5.351894,23.833904 
	C5.196980,24.267672 4.979680,24.526587 4.576591,24.956013 
	C4.294045,24.939524 4.197289,24.752520 4.007145,24.263756 
	C4.157863,23.734549 4.401968,23.507105 4.898572,23.297089 
	C5.151073,23.314520 5.289507,23.659050 5.351894,23.833904 
z"/>
<path fill="#DC5F5D" opacity="1.000000" stroke="none" 
	d="
M46.057755,220.285324 
	C46.483120,220.666794 46.809540,221.380569 47.149475,222.402039 
	C45.919582,222.497025 45.963943,221.543091 46.057755,220.285324 
z"/>
<path fill="#DC5F5D" opacity="1.000000" stroke="none" 
	d="
M48.343712,224.149261 
	C48.780533,224.041351 49.262234,224.239273 49.879272,224.666718 
	C49.350410,225.199554 48.837326,224.945892 48.343712,224.149261 
z"/>
<path fill="#DC5F5D" opacity="1.000000" stroke="none" 
	d="
M52.752079,226.407562 
	C52.960003,226.121979 53.167030,226.076614 53.690178,225.997650 
	C54.006302,225.964020 54.311241,226.294113 54.232967,226.504730 
	C53.957947,226.789948 53.761200,226.864532 53.257248,227.012115 
	C52.950043,227.085083 52.751186,226.647766 52.752079,226.407562 
z"/>
<path fill="#DC5F5D" opacity="1.000000" stroke="none" 
	d="
M51.221123,225.116241 
	C51.387691,224.818863 51.620369,224.847244 51.938461,225.171738 
	C52.041637,225.322525 51.668095,225.457260 51.668095,225.457260 
	C51.668095,225.457260 51.305004,225.296661 51.221123,225.116241 
z"/>
<path fill="#DC5F5D" opacity="1.000000" stroke="none" 
	d="
M47.382309,223.083466 
	C47.657677,222.881729 47.873753,223.008636 48.079029,223.432678 
	C47.802799,223.705658 47.554390,223.599747 47.382309,223.083466 
z"/>
<path fill="#DC5F5D" opacity="1.000000" stroke="none" 
	d="
M45.513489,219.144791 
	C45.825855,218.992355 46.007950,219.145676 46.106689,219.589264 
	C45.788898,219.794373 45.575527,219.651398 45.513489,219.144791 
z"/>
<path fill="#DC5F5D" opacity="1.000000" stroke="none" 
	d="
M44.090508,217.249863 
	C44.395500,217.233765 44.615063,217.497818 44.817715,218.027649 
	C44.535561,218.038940 44.270317,217.784470 44.090508,217.249863 
z"/>
<path fill="#D01E1A" opacity="1.000000" stroke="none" 
	d="
M54.571449,226.750031 
	C54.154694,226.715363 54.100670,226.335968 54.053486,226.149994 
	C55.461884,222.320877 57.918350,224.371216 60.477509,224.931274 
	C61.067410,225.116150 61.285686,225.261475 61.261887,225.716858 
	C60.778404,226.229691 60.552174,226.448181 60.180870,226.855499 
	C58.343147,226.947311 56.665676,226.866013 54.571449,226.750031 
z"/>
<path fill="#FAB8B4" opacity="1.000000" stroke="none" 
	d="
M61.355545,226.046326 
	C60.969749,225.854370 60.919689,225.681854 60.859383,225.240082 
	C61.646534,224.933670 62.443932,224.896530 63.629112,224.956696 
	C63.494061,225.971390 62.564159,225.953033 61.355545,226.046326 
z"/>
<path fill="#FAB8B4" opacity="1.000000" stroke="none" 
	d="
M65.462082,221.980957 
	C65.316139,221.753006 65.386284,221.422256 65.732063,221.051697 
	C66.048035,221.357788 65.938187,221.646561 65.462082,221.980957 
z"/>
<path fill="#D04E4A" opacity="1.000000" stroke="none" 
	d="
M58.750366,113.801010 
	C59.127655,114.697098 59.300072,115.197968 59.696259,115.851181 
	C61.141544,120.075775 60.124401,124.260414 60.756184,128.764832 
	C61.156998,129.668335 61.342571,130.180084 61.755363,130.851044 
	C62.695896,132.014648 62.685932,133.004990 61.517677,133.972504 
	C58.286362,129.752411 59.156219,124.842949 58.299026,120.255791 
	C57.156208,114.140144 56.157658,108.095917 56.132050,101.418007 
	C56.197605,100.832787 56.327465,100.712059 56.711632,100.669189 
	C57.131111,101.059196 57.296284,101.371361 57.674370,101.842949 
	C59.232620,105.738525 58.073116,109.619263 58.750366,113.801010 
z"/>
<path fill="#D04E4A" opacity="1.000000" stroke="none" 
	d="
M62.187366,148.681366 
	C59.496429,151.432388 58.344128,154.463486 57.824162,157.822479 
	C57.533016,159.703308 56.268284,161.092850 54.877491,162.711182 
	C55.695812,157.419708 57.467163,152.210541 60.900459,147.306000 
	C62.233082,146.813721 62.392750,147.526825 62.187366,148.681366 
z"/>
<path fill="#D21A18" opacity="1.000000" stroke="none" 
	d="
M62.261139,148.709518 
	C61.831844,148.448318 61.710823,147.902222 61.353302,147.198883 
	C61.067940,142.990311 61.019070,138.939011 61.040371,134.425995 
	C62.006313,133.428253 61.962238,132.535324 61.982765,131.338623 
	C63.959095,136.755020 62.970798,142.599716 62.261139,148.709518 
z"/>
<path fill="#B92523" opacity="1.000000" stroke="none" 
	d="
M56.971344,100.354935 
	C56.965939,100.747032 56.512772,100.831970 56.290260,100.892738 
	C53.271183,98.675789 55.212543,95.577896 54.753914,92.474716 
	C54.995632,91.909561 55.158627,91.778763 55.616127,91.755341 
	C56.266006,94.562752 56.621380,97.262802 56.971344,100.354935 
z"/>
<path fill="#D04E4A" opacity="1.000000" stroke="none" 
	d="
M49.405216,176.757172 
	C49.679024,178.691681 50.579536,180.853760 48.793964,182.918915 
	C48.053524,180.955185 47.347099,178.807556 49.405216,176.757172 
z"/>
<path fill="#A92D2C" opacity="1.000000" stroke="none" 
	d="
M47.918022,185.188690 
	C47.720421,186.892654 48.591263,188.567749 46.780746,189.857620 
	C46.053722,188.447189 45.810108,186.953278 47.101292,185.365936 
	C47.585682,185.108688 47.732521,185.022446 47.918022,185.188690 
z"/>
<path fill="#D04E4A" opacity="1.000000" stroke="none" 
	d="
M53.682259,164.004028 
	C53.751568,164.884827 53.521561,165.794525 52.986618,166.896637 
	C51.928154,165.843796 52.180477,164.829346 53.682259,164.004028 
z"/>
<path fill="#D04E4A" opacity="1.000000" stroke="none" 
	d="
M55.915867,91.562729 
	C55.733139,91.905380 55.555641,91.948059 55.105392,92.015549 
	C54.754009,91.465508 54.675377,90.890671 54.760624,90.147293 
	C55.091560,89.984093 55.258621,89.989418 55.673416,90.027908 
	C55.921135,90.461632 55.921116,90.862198 55.915867,91.562729 
z"/>
<path fill="#D04E4A" opacity="1.000000" stroke="none" 
	d="
M51.335186,170.548767 
	C51.921989,171.321671 51.896923,172.147949 50.847691,172.954163 
	C50.026791,172.155624 50.256367,171.360764 51.335186,170.548767 
z"/>
<path fill="#D04E4A" opacity="1.000000" stroke="none" 
	d="
M48.024826,185.199463 
	C47.956676,185.441193 47.695873,185.322525 47.567360,185.258728 
	C47.379208,184.889297 47.483971,184.658340 47.953556,184.480606 
	C48.133640,184.625336 48.113308,184.791534 48.024826,185.199463 
z"/>
<path fill="#D04E4A" opacity="1.000000" stroke="none" 
	d="
M52.517757,168.733521 
	C52.679966,168.915298 52.646652,169.286484 52.371986,169.815201 
	C52.194496,169.622803 52.258366,169.272842 52.517757,168.733521 
z"/>
<path fill="#D51915" opacity="1.000000" stroke="none" 
	d="
M71.010086,159.372406 
	C71.337929,159.446945 71.937836,160.001633 71.936104,160.554443 
	C71.899590,172.218719 72.564445,183.890411 71.337082,195.871063 
	C71.029968,184.081223 71.015961,171.966446 71.010086,159.372406 
z"/>
<path fill="#CE1915" opacity="1.000000" stroke="none" 
	d="
M66.634972,96.755646 
	C66.837372,101.335503 66.920700,105.698753 67.001373,110.526077 
	C65.980103,110.786362 65.037872,110.380035 65.085106,109.180649 
	C65.255875,104.844734 64.200996,100.446136 66.056076,95.855469 
	C66.391037,95.533218 66.424500,95.609726 66.430573,95.651031 
	C66.436653,95.692337 66.226860,96.138992 66.226860,96.138992 
	C66.226860,96.138992 66.515900,96.539055 66.634972,96.755646 
z"/>
<path fill="#D31914" opacity="1.000000" stroke="none" 
	d="
M69.779297,141.283325 
	C70.078926,146.040573 70.058571,151.072784 70.038643,156.577911 
	C68.025909,151.954773 69.027046,146.745880 69.779297,141.283325 
z"/>
<path fill="#D31813" opacity="1.000000" stroke="none" 
	d="
M60.983780,128.679993 
	C58.789497,125.232994 60.509125,120.984436 59.936356,116.464485 
	C62.254959,119.895828 60.437351,124.154419 60.983780,128.679993 
z"/>
<path fill="#D31917" opacity="1.000000" stroke="none" 
	d="
M58.972267,113.719086 
	C56.905872,110.593155 58.416946,106.663582 57.904118,102.460220 
	C60.172157,105.560890 58.508427,109.506554 58.972267,113.719086 
z"/>
<path fill="#C72A26" opacity="1.000000" stroke="none" 
	d="
M76.189262,97.930939 
	C75.719170,96.401787 75.354057,94.806915 76.518143,93.109894 
	C78.386230,94.673363 78.873238,96.365089 76.189262,97.930939 
z"/>
<path fill="#DC2925" opacity="1.000000" stroke="none" 
	d="
M66.856651,96.737030 
	C66.435349,96.795212 66.269020,96.524498 66.345856,95.926224 
	C66.610855,95.962166 66.785057,96.231995 66.856651,96.737030 
z"/>
<path fill="#DD2926" opacity="1.000000" stroke="none" 
	d="
M8.002222,47.003326 
	C7.886348,46.868382 7.768271,46.730118 7.650195,46.591854 
	C7.731534,46.640812 7.812873,46.689770 7.950430,46.871559 
	C8.006649,47.004387 8.000020,47.000000 8.002222,47.003326 
z"/>
</svg>